<?xml version="1.0" standalone="no"?>
<!DOCTYPE svg PUBLIC "-//W3C//DTD SVG 20010904//EN"
 "http://www.w3.org/TR/2001/REC-SVG-20010904/DTD/svg10.dtd">
<svg version="1.0" xmlns="http://www.w3.org/2000/svg"
 width="459.000000pt" height="459.000000pt" viewBox="0 0 459.000000 459.000000"
 preserveAspectRatio="xMidYMid meet">
<metadata>
Created by potrace 1.14, written by Peter Selinger 2001-2017
</metadata>
<g transform="translate(0.000000,459.000000) scale(0.100000,-0.100000)"
fill="#000000" stroke="none">
<path d="M2922 4007 c-59 -19 -112 -84 -180 -220 l-64 -127 -51 -1 c-94 -1
-681 -1 -737 0 l-55 1 -60 121 c-71 142 -113 189 -191 214 -63 20 -117 15
-182 -16 -56 -28 -81 -63 -173 -244 -66 -132 -80 -151 -129 -190 -30 -24 -68
-56 -83 -72 -25 -27 -32 -29 -70 -24 -59 9 -337 -2 -356 -14 -3 -1 -28 -6 -56
-9 -27 -4 -66 -11 -85 -16 -19 -5 -46 -11 -60 -14 -52 -10 -134 -38 -195 -68
-232 -110 -248 -300 -39 -472 141 -116 486 -276 652 -302 23 -4 43 -12 43 -18
1 -6 3 -243 4 -526 1 -283 5 -533 8 -554 16 -103 71 -218 142 -297 35 -40 118
-109 130 -109 5 0 16 -6 24 -14 9 -8 51 -26 93 -41 43 -15 78 -31 78 -35 0
-19 105 -121 172 -167 131 -90 341 -173 502 -199 21 -3 47 -7 57 -9 149 -29
423 -25 619 9 279 49 561 197 667 351 15 21 35 34 70 43 184 49 363 244 399
434 3 18 7 40 9 48 2 8 4 257 4 553 1 421 4 539 14 542 181 61 463 190 475
218 2 4 8 7 14 7 14 0 117 82 159 127 134 143 113 299 -55 397 -41 24 -216 89
-216 81 0 -2 -11 0 -25 5 -57 22 -284 50 -427 53 -63 2 -81 6 -100 23 -74 69
-94 84 -105 84 -7 0 -13 3 -13 8 0 11 -126 64 -180 76 -20 4 -38 30 -93 139
-73 144 -109 189 -172 218 -44 21 -130 23 -183 6z"/>
</g>
</svg>
